<mxfile host="app.diagrams.net" modified="2021-02-08T16:16:20.136Z" agent="5.0 (Windows NT 10.0; Win64; x64) AppleWebKit/537.36 (KHTML, like Gecko) Chrome/88.0.4324.146 Safari/537.36" etag="gXy_ok2pFl6FPc7DPq8U" version="14.2.9" type="github">
  <diagram id="R2lEEEUBdFMjLlhIrx00" name="Page-1">
    <mxGraphModel dx="2130" dy="1023" grid="1" gridSize="10" guides="1" tooltips="1" connect="1" arrows="1" fold="1" page="1" pageScale="1" pageWidth="850" pageHeight="1100" math="0" shadow="0" extFonts="Permanent Marker^https://fonts.googleapis.com/css?family=Permanent+Marker">
      <root>
        <mxCell id="0" />
        <mxCell id="1" parent="0" />
        <mxCell id="4dvlSXXZCsM-rRWsN0Go-1" value="Orders" style="swimlane;childLayout=stackLayout;horizontal=1;startSize=30;horizontalStack=0;rounded=1;fontSize=14;fontStyle=0;strokeWidth=2;resizeParent=0;resizeLast=1;shadow=0;dashed=0;align=center;" parent="1" vertex="1">
          <mxGeometry x="850" y="520" width="230" height="540" as="geometry" />
        </mxCell>
        <mxCell id="4dvlSXXZCsM-rRWsN0Go-2" value="id&#xa;code&#xa;salesperson_id&#xa;customer_name&#xa;phone_number&#xa;gender&#xa;city&#xa;credits&#xa;product_type&#xa;size&#xa;quantity&#xa;color&#xa;fabric&#xa;neck&#xa;shirt_length&#xa;chest&#xa;trouser_length&#xa;arm&#xa;shoulder&#xa;waist&#xa;order_status&#xa;payment_method&#xa;order_notes&#xa;delivery_notes&#xa;order_date&#xa;delivery_date&#xa;scheduled_date&#xa;delivery_courier&#xa;delivery_status&#xa;delivery_address&#xa;extras&#xa;logistic&#xa;sale_price&#xa;product_price" style="align=left;strokeColor=none;fillColor=none;spacingLeft=4;fontSize=12;verticalAlign=top;resizable=0;rotatable=0;part=1;" parent="4dvlSXXZCsM-rRWsN0Go-1" vertex="1">
          <mxGeometry y="30" width="230" height="510" as="geometry" />
        </mxCell>
        <mxCell id="4dvlSXXZCsM-rRWsN0Go-8" value="Raw Material" style="swimlane;childLayout=stackLayout;horizontal=1;startSize=30;horizontalStack=0;rounded=1;fontSize=14;fontStyle=0;strokeWidth=2;resizeParent=0;resizeLast=1;shadow=0;dashed=0;align=center;" parent="1" vertex="1">
          <mxGeometry x="110" y="390" width="210" height="200" as="geometry" />
        </mxCell>
        <mxCell id="4dvlSXXZCsM-rRWsN0Go-9" value="id&#xa;purchase_date&#xa;type&#xa;season&#xa;material&#xa;color_name&#xa;color_code&#xa;price/m&#xa;meters_purchased&#xa;sq_meters&#xa;investment_id" style="align=left;strokeColor=none;fillColor=none;spacingLeft=4;fontSize=12;verticalAlign=top;resizable=0;rotatable=0;part=1;" parent="4dvlSXXZCsM-rRWsN0Go-8" vertex="1">
          <mxGeometry y="30" width="210" height="170" as="geometry" />
        </mxCell>
        <mxCell id="4dvlSXXZCsM-rRWsN0Go-10" value="Inventories" style="swimlane;childLayout=stackLayout;horizontal=1;startSize=30;horizontalStack=0;rounded=1;fontSize=14;fontStyle=0;strokeWidth=2;resizeParent=0;resizeLast=1;shadow=0;dashed=0;align=center;" parent="1" vertex="1">
          <mxGeometry x="530" y="280" width="225" height="200" as="geometry" />
        </mxCell>
        <mxCell id="4dvlSXXZCsM-rRWsN0Go-11" value="id&#xa;neck_shape&#xa;product_type&#xa;fabric&#xa;design&#xa;gender&#xa;size&#xa;selling&#xa;in_stock&#xa;quantity" style="align=left;strokeColor=none;fillColor=none;spacingLeft=4;fontSize=12;verticalAlign=top;resizable=0;rotatable=0;part=1;" parent="4dvlSXXZCsM-rRWsN0Go-10" vertex="1">
          <mxGeometry y="30" width="225" height="170" as="geometry" />
        </mxCell>
        <mxCell id="4dvlSXXZCsM-rRWsN0Go-16" value="SalesPerson" style="swimlane;childLayout=stackLayout;horizontal=1;startSize=30;horizontalStack=0;rounded=1;fontSize=14;fontStyle=0;strokeWidth=2;resizeParent=0;resizeLast=1;shadow=0;dashed=0;align=center;" parent="1" vertex="1">
          <mxGeometry x="110" y="720" width="210" height="260" as="geometry" />
        </mxCell>
        <mxCell id="4dvlSXXZCsM-rRWsN0Go-17" value="id&#xa;code&#xa;name&#xa;phone&#xa;email&#xa;city&#xa;address&#xa;password&#xa;salespersons&#xa;active&#xa;supervisor&#xa;total orders&#xa;total scrubs&#xa;scrubs_per_order&#xa;commission&#xa;salesperson_value" style="align=left;strokeColor=none;fillColor=none;spacingLeft=4;fontSize=12;verticalAlign=top;resizable=0;rotatable=0;part=1;" parent="4dvlSXXZCsM-rRWsN0Go-16" vertex="1">
          <mxGeometry y="30" width="210" height="230" as="geometry" />
        </mxCell>
        <mxCell id="vSS0QRHOOfrjvI_0r997-1" value="Investments" style="swimlane;childLayout=stackLayout;horizontal=1;startSize=30;horizontalStack=0;rounded=1;fontSize=14;fontStyle=0;strokeWidth=2;resizeParent=0;resizeLast=1;shadow=0;dashed=0;align=center;" parent="1" vertex="1">
          <mxGeometry x="850" y="40" width="230" height="200" as="geometry" />
        </mxCell>
        <mxCell id="vSS0QRHOOfrjvI_0r997-2" value="id&#xa;code&#xa;name&#xa;amountÂ &#xa;status&#xa;profit&#xa;percentage&#xa;amount_used&#xa;investor_date&#xa;" style="align=left;strokeColor=none;fillColor=none;spacingLeft=4;fontSize=12;verticalAlign=top;resizable=0;rotatable=0;part=1;" parent="vSS0QRHOOfrjvI_0r997-1" vertex="1">
          <mxGeometry y="30" width="230" height="170" as="geometry" />
        </mxCell>
        <mxCell id="vSS0QRHOOfrjvI_0r997-6" value="Categories" style="swimlane;childLayout=stackLayout;horizontal=1;startSize=30;horizontalStack=0;rounded=1;fontSize=14;fontStyle=0;strokeWidth=2;resizeParent=0;resizeLast=1;shadow=0;dashed=0;align=center;" parent="1" vertex="1">
          <mxGeometry x="110" y="40" width="210" height="200" as="geometry" />
        </mxCell>
        <mxCell id="vSS0QRHOOfrjvI_0r997-7" value="id&#xa;neck_shape&#xa;product_type&#xa;neck_shape&#xa;design&#xa;price&#xa;discounted&#xa;discounted_price" style="align=left;strokeColor=none;fillColor=none;spacingLeft=4;fontSize=12;verticalAlign=top;resizable=0;rotatable=0;part=1;" parent="vSS0QRHOOfrjvI_0r997-6" vertex="1">
          <mxGeometry y="30" width="210" height="170" as="geometry" />
        </mxCell>
        <mxCell id="vSS0QRHOOfrjvI_0r997-8" value="Customers" style="swimlane;childLayout=stackLayout;horizontal=1;startSize=30;horizontalStack=0;rounded=1;fontSize=14;fontStyle=0;strokeWidth=2;resizeParent=0;resizeLast=1;shadow=0;dashed=0;align=center;" parent="1" vertex="1">
          <mxGeometry x="520" y="720" width="210" height="280" as="geometry" />
        </mxCell>
        <mxCell id="vSS0QRHOOfrjvI_0r997-9" value="id&#xa;code&#xa;customer_name&#xa;password&#xa;phone&#xa;email&#xa;city&#xa;address&#xa;marketing_reference&#xa;ad_id&#xa;customer_gender&#xa;salesperson&#xa;total_scrub&#xa;total_scrubs&#xa;credits&#xa;happy" style="align=left;strokeColor=none;fillColor=none;spacingLeft=4;fontSize=12;verticalAlign=top;resizable=0;rotatable=0;part=1;" parent="vSS0QRHOOfrjvI_0r997-8" vertex="1">
          <mxGeometry y="30" width="210" height="250" as="geometry" />
        </mxCell>
        <mxCell id="vSS0QRHOOfrjvI_0r997-10" value="" style="edgeStyle=entityRelationEdgeStyle;fontSize=12;html=1;endArrow=ERoneToMany;exitX=1;exitY=0;exitDx=0;exitDy=0;entryX=0;entryY=0;entryDx=0;entryDy=0;" parent="1" source="4dvlSXXZCsM-rRWsN0Go-17" target="vSS0QRHOOfrjvI_0r997-9" edge="1">
          <mxGeometry width="100" height="100" relative="1" as="geometry">
            <mxPoint x="570" y="500" as="sourcePoint" />
            <mxPoint x="670" y="400" as="targetPoint" />
          </mxGeometry>
        </mxCell>
        <mxCell id="w3djzu32BActTbxkcVxx-1" value="" style="edgeStyle=entityRelationEdgeStyle;fontSize=12;html=1;endArrow=ERoneToMany;entryX=1;entryY=0.074;entryDx=0;entryDy=0;entryPerimeter=0;exitX=0;exitY=0;exitDx=0;exitDy=0;" edge="1" parent="1" source="4dvlSXXZCsM-rRWsN0Go-11" target="vSS0QRHOOfrjvI_0r997-6">
          <mxGeometry width="100" height="100" relative="1" as="geometry">
            <mxPoint x="680" y="400" as="sourcePoint" />
            <mxPoint x="745" y="260" as="targetPoint" />
          </mxGeometry>
        </mxCell>
        <mxCell id="w3djzu32BActTbxkcVxx-3" value="" style="edgeStyle=entityRelationEdgeStyle;fontSize=12;html=1;endArrow=ERmandOne;startArrow=ERmandOne;entryX=0.006;entryY=0.034;entryDx=0;entryDy=0;entryPerimeter=0;exitX=0.991;exitY=0.037;exitDx=0;exitDy=0;exitPerimeter=0;" edge="1" parent="1" source="4dvlSXXZCsM-rRWsN0Go-16" target="4dvlSXXZCsM-rRWsN0Go-1">
          <mxGeometry width="100" height="100" relative="1" as="geometry">
            <mxPoint x="470" y="710" as="sourcePoint" />
            <mxPoint x="570" y="610" as="targetPoint" />
          </mxGeometry>
        </mxCell>
        <mxCell id="w3djzu32BActTbxkcVxx-4" value="" style="edgeStyle=entityRelationEdgeStyle;fontSize=12;html=1;endArrow=ERoneToMany;entryX=0;entryY=0;entryDx=0;entryDy=0;exitX=1.007;exitY=0.107;exitDx=0;exitDy=0;exitPerimeter=0;" edge="1" parent="1" source="vSS0QRHOOfrjvI_0r997-8" target="4dvlSXXZCsM-rRWsN0Go-2">
          <mxGeometry width="100" height="100" relative="1" as="geometry">
            <mxPoint x="910" y="740" as="sourcePoint" />
            <mxPoint x="950" y="670" as="targetPoint" />
          </mxGeometry>
        </mxCell>
        <mxCell id="w3djzu32BActTbxkcVxx-8" value="" style="edgeStyle=entityRelationEdgeStyle;fontSize=12;html=1;endArrow=ERmany;startArrow=ERmany;exitX=1;exitY=0;exitDx=0;exitDy=0;entryX=0.25;entryY=0;entryDx=0;entryDy=0;" edge="1" parent="1" source="4dvlSXXZCsM-rRWsN0Go-11" target="4dvlSXXZCsM-rRWsN0Go-1">
          <mxGeometry width="100" height="100" relative="1" as="geometry">
            <mxPoint x="820" y="410" as="sourcePoint" />
            <mxPoint x="940" y="470" as="targetPoint" />
          </mxGeometry>
        </mxCell>
      </root>
    </mxGraphModel>
  </diagram>
</mxfile>
